<svg width="43" height="37" viewBox="0 0 43 37" fill="none" xmlns="http://www.w3.org/2000/svg">
<path d="M40.142 0L31.9545 1.43L37.6628 7.92L41.767 7.18667L40.142 0ZM25.8295 2.49333L21.7253 3.20833L27.4545 9.68L31.5378 8.965L25.8295 2.49333ZM15.6212 4.25333L11.517 5.005L17.2462 11.4767L21.3295 10.7617L15.6212 4.25333ZM5.39199 6.08667L3.35033 6.435C2.26779 6.62533 1.31533 7.18594 0.702077 7.99371C0.0888248 8.80148 -0.135092 9.7904 0.0794916 10.7433L0.891992 14.3367L11.1003 12.5583L5.39199 6.08667ZM0.891992 14.3367V32.67C0.891992 34.705 2.76699 36.3367 5.05866 36.3367H38.392C40.7045 36.3367 42.5587 34.705 42.5587 32.67V14.3367H0.891992Z" fill="white"/>
</svg>
